<svg width="324" height="26" viewBox="0 0 324 26" fill="none" xmlns="http://www.w3.org/2000/svg">
<path d="M44.6638 12.1144L56.588 0.414734H52.9413L38.5633 14.8564V0.414734H35.7405V24.5917H38.5633V18.0993L42.1692 14.5682C49.1163 14.5801 52.9589 19.2113 52.9589 24.4705V24.5399H55.7756C55.7756 18.3414 51.3689 12.8112 44.6638 12.1144Z" fill="#050505"/>
<path d="M70.7593 0C63.1439 0 57.9595 5.84125 57.9595 12.5063V12.5753C57.9595 19.2404 63.0745 25.0065 70.6899 25.0065C78.3053 25.0065 83.4897 19.171 83.4897 12.5063V12.4369C83.4897 5.77228 78.3747 0 70.7593 0ZM80.5579 12.5753C80.5579 18.0651 76.4793 22.489 70.7593 22.489C65.0389 22.489 60.8913 17.9957 60.8913 12.5063V12.4369C60.8913 6.94714 64.9699 2.52323 70.6899 2.52323C76.4103 2.52323 80.5579 7.01653 80.5579 12.5063V12.5753Z" fill="#050505"/>
<path d="M95.6568 12.1891C92.1195 12.1373 89.631 10.3289 89.631 7.70768V7.64442C89.631 4.92524 92.0795 2.91473 95.6221 2.91473C98.1396 2.91473 100.518 4.04387 102.679 5.84128L104.522 4.10145C102.287 2.18321 99.205 0.714417 95.6568 0.714417C90.4838 0.714417 86.7971 3.55442 86.7971 7.73666V7.79995C86.7971 11.8552 90.5528 14.3323 95.3743 14.3323C95.4723 14.3323 95.5645 14.3266 95.6568 14.3266V12.2528V12.1891Z" fill="#050505"/>
<path d="M114.968 22.1089V21.6423C115.083 16.4807 118.943 12.172 124.207 11.9703V9.4532C120.296 9.58546 117.093 11.331 114.968 13.9289V2.90326H130.239V0.414734H112.145V24.5917H130.417V22.1089H114.968Z" fill="#050505"/>
<path d="M137.729 15.4034V0.414734H134.906V24.5917H137.729V22.6678C137.844 16.8437 143.247 13.1513 148.535 12.9553V10.4325C144.255 10.5819 140.275 12.4426 137.729 15.4034ZM154.998 24.5917V0.414734H152.176V24.5917H154.998Z" fill="#050505"/>
<path d="M172.921 0.24205H170.277L158.871 24.5917H161.774C163.237 21.406 166.302 19.1305 170.093 18.9868V16.4693C168.175 16.5383 166.446 16.9877 164.943 17.7364L171.567 3.4217L181.291 24.5917H184.327L172.921 0.24205Z" fill="#050505"/>
<path d="M190.895 15.4034V0.414734H188.072V24.5917H190.895V22.6678V15.4034ZM208.165 24.5917V0.414734H205.343V24.5917H208.165Z" fill="#050505"/>
<path d="M219.985 0.414734V19.7931L234.955 0.414734H237.464V24.5917H234.85V4.76964L219.509 24.5917H217.372V0.414734H219.985Z" fill="#050505"/>
<path d="M244.464 8.15137V8.08769C244.464 3.31801 247.997 0.414734 253.36 0.414734H262.25V24.5917H259.571V2.93796H253.562C249.73 2.93796 247.182 4.73536 247.182 8.18566V8.25506C247.182 11.4347 249.763 13.5775 253.699 13.5775H253.989L253.967 16.066C250.266 17.6789 248.385 21.0373 248.385 24.5223V24.5917H245.23C245.23 21.0373 246.859 17.7079 249.659 15.3749C246.613 14.2747 244.464 11.8495 244.464 8.15137Z" fill="#050505"/>
<path d="M99.8422 5.75269C99.7446 5.76289 99.6536 5.77679 99.5564 5.78699L99.7528 7.70889L99.7581 7.76197C103.287 7.44478 105.934 8.86375 106.181 11.2808L106.187 11.3388C106.443 13.8474 104.198 15.9513 100.673 16.3118C98.1689 16.5681 95.6959 15.7721 93.3767 14.3291L91.7075 16.1215C94.1124 17.6675 97.3161 18.7044 100.841 18.3435C105.992 17.8169 109.392 14.823 108.997 10.9641L108.992 10.911C108.609 7.1627 104.638 5.26241 99.8422 5.75269Z" fill="#050505"/>
<path d="M99.2118 14.8565V3.75447H96.3889V24.5918H99.2118V18.0994V14.8565Z" fill="#050505"/>
<path d="M207.005 20.0315L204.87 24.5917H207.773C209.236 21.406 212.3 19.1305 216.091 18.9868V16.4693C214.173 16.5383 212.445 16.9878 210.941 17.7364C209.338 18.4786 208.022 19.2432 207.005 20.0315Z" fill="#050505"/>
<path fill-rule="evenodd" clip-rule="evenodd" d="M96.4995 24.5917H125.543V22.106H96.4995V24.5917Z" fill="#050505"/>
<path fill-rule="evenodd" clip-rule="evenodd" d="M181.422 24.5917H208.165V22.106H181.422V24.5917Z" fill="#050505"/>
<path fill-rule="evenodd" clip-rule="evenodd" d="M235.142 24.5917H247.872V22.106H235.142V24.5917Z" fill="#050505"/>
<path fill-rule="evenodd" clip-rule="evenodd" d="M23.2539 24.5917H38.3263V22.106H23.2539V24.5917Z" fill="#050505"/>
<path fill-rule="evenodd" clip-rule="evenodd" d="M260.048 24.5917H279.223L276.979 22.106H260.048V24.5917Z" fill="#050505"/>
<path fill-rule="evenodd" clip-rule="evenodd" d="M152.474 24.5917H161.362V22.106H152.474V24.5917Z" fill="#050505"/>
<path d="M278.953 24.119C277.692 23.6675 276.966 23.0237 276.857 22.1583L277.263 20.6438C275.358 20.4376 274.04 19.5514 273.671 17.7479L271.959 9.38951C271.451 7.16796 268.766 4.51655 268.325 4.21202H269.922C271.451 5.78286 272.733 7.28022 273.149 9.57606L274.769 17.2082C275.054 18.5529 275.784 19.2273 277.541 19.4763L279.593 11.8082C280.065 10.0516 279.713 6.7679 279.773 4.24794H283.409C283.136 4.1863 283.042 4.04138 282.959 3.94177V3.2037C283.471 2.74976 286.752 2.70975 287.441 3.18574V3.90585C287.353 4.02301 287.237 4.12629 287.014 4.17568H290.663V6.87607H292.499C293.023 7.28756 293.294 8.20321 293.238 8.90086C293.43 8.27138 293.459 7.60148 293.267 6.87607C294.209 6.7336 294.809 6.02249 295.211 4.97989L297.587 5.92532C297.189 6.91567 296.712 7.80111 296.966 8.94904L300.719 17.7242C300.09 18.2933 299.287 18.5819 298.37 18.6827L294.846 10.5019C294.518 9.91734 294.005 9.55156 293.28 9.43522L290.621 9.36786C290.578 10.2129 290.66 11.0424 290.904 11.8519L293.861 22.1795C293.597 23.1258 292.901 23.7891 291.701 24.1235L307.611 24.1076C307.201 23.9765 306.869 23.7777 306.661 23.4736C305.602 21.7962 304.733 20.0796 304.241 18.2896C303.821 16.7624 303.621 15.2059 303.593 13.624C304.004 12.4749 317.137 12.3752 318.433 13.5807C314.243 14.3923 309.691 14.5837 304.695 14.0126C308.658 15.2446 313.224 15.4879 318.627 14.3584L318.606 15.2655L320.917 15.3736C323.304 15.6553 323.891 19.5881 321.262 20.3633L317.74 21.1022L318.336 19.8126L320.344 19.7477C322.369 19.2975 322.177 16.4771 320.539 16.3995L318.422 16.4644C318.27 17.1041 318.07 17.8679 317.731 18.7325C317.07 20.4184 316.37 22.0624 315.333 23.5491C315.077 23.8671 314.746 24.0594 314.318 24.0892H322.634" stroke="#050505" stroke-width="0.2" stroke-miterlimit="22.9256" stroke-linejoin="round"/>
<path d="M36.2212 24.2223H23.2536V18.3202C19.8662 18.813 18.0296 18.3876 16.4714 17.8936C18.6909 18.1586 21.3729 18.0357 23.2569 17.3429V5.44448L20.2279 5.41631L20.1964 4.021H18.7811L18.7823 4.31696C17.3829 4.40024 15.6562 4.1549 14.5605 4.82642C12.8737 5.86045 10.1994 7.74603 9.4132 7.74603H6.87528C6.43522 7.74603 6.2556 7.22637 6.30826 6.58505C7.88522 5.51632 8.56818 4.16429 8.46817 2.53507C7.16063 1.48513 4.31042 1.54186 3.12209 2.72408C3.32906 4.3733 4.12469 5.74493 5.55755 6.58505C5.61184 7.74114 5.94821 8.47268 7.07328 8.47268H9.64793C10.4746 8.47268 13.3183 6.44911 15.1042 5.35466C15.6958 4.99257 17.565 5.15014 18.7954 5.04768V5.40202L15.8011 5.49632V24.2215L7.6109 24.2223C11.9511 21.7673 10.2876 13.197 6.9308 12.7602C6.13272 13.4587 7.62887 15.1969 6.41564 17.7589C5.58531 19.5123 5.34404 20.6683 5.9874 22.7515C4.99093 21.0047 4.54637 19.3314 5.41425 17.6181C6.38868 15.6941 5.55141 14.4654 6.01475 12.7966C2.14643 13.7334 1.12791 21.8236 5.04685 24.2215L0 24.2276" stroke="#050505" stroke-width="0.2" stroke-miterlimit="22.9256" stroke-linejoin="round"/>
</svg>
