<svg xmlns="http://www.w3.org/2000/svg" width="40" height="40" fill="none"><defs/><path fill="#000" d="M34.072 20.582c-3.988-3.386-8.864-6.063-14.072-6.063-5.21 0-10.085 2.679-14.072 6.063C2.454 23.53.314 26.447.225 26.569c-.3.412-.3.97 0 1.38.09.123 2.23 3.04 5.703 5.988C9.916 37.323 14.792 40 20 40c5.21 0 10.085-2.679 14.072-6.063 3.474-2.948 5.614-5.865 5.703-5.987.3-.412.3-.97 0-1.38-.09-.123-2.23-3.04-5.703-5.988zm-1.557 11.602C29.565 34.681 25 37.656 20 37.656c-5 0-9.565-2.975-12.515-5.472a38.166 38.166 0 01-4.826-4.924 38.167 38.167 0 014.826-4.925C10.435 19.838 15 16.863 20 16.863c5 0 9.565 2.975 12.515 5.472a38.159 38.159 0 014.826 4.924 38.152 38.152 0 01-4.826 4.925z"/><path fill="#000" d="M20 20.412a6.855 6.855 0 00-6.848 6.847A6.855 6.855 0 0020 34.107a6.855 6.855 0 006.847-6.848A6.855 6.855 0 0020 20.412zm0 11.351a4.509 4.509 0 01-4.504-4.504A4.509 4.509 0 0120 22.756a4.509 4.509 0 014.504 4.503A4.509 4.509 0 0120 31.764zM20 12.175c.647 0 1.172-.524 1.172-1.172V1.172a1.172 1.172 0 00-2.344 0v9.832c0 .647.525 1.171 1.172 1.171zM10.694 12.587a1.172 1.172 0 002.08-1.079L8.247 2.781a1.172 1.172 0 00-2.08 1.079l4.527 8.727zM27.727 13.088a1.172 1.172 0 001.58-.5l4.526-8.728a1.172 1.172 0 10-2.08-1.08l-4.527 8.728a1.172 1.172 0 00.5 1.58z"/></svg>