<svg xmlns="http://www.w3.org/2000/svg" width="40" height="40" fill="none"><defs/><g fill="#000" clip-path="url(#prefix__clip0)"><path d="M0 27.267c0 .952 1.079 1.506 1.852.954l6.443-4.596a3.152 3.152 0 011.841-.59h14.17a4.529 4.529 0 004.524-4.523V3.642c0-.647-.524-1.171-1.171-1.171H4.523A4.529 4.529 0 000 6.994v20.273zM2.344 6.994c0-1.202.978-2.18 2.18-2.18h21.963v13.698c0 1.202-.978 2.18-2.18 2.18h-14.17a5.483 5.483 0 00-3.203 1.025l-4.59 3.275V6.994z"/><path d="M40 16.084a4.529 4.529 0 00-4.524-4.524h-3.13a1.172 1.172 0 000 2.344h3.13c1.202 0 2.18.978 2.18 2.18v17.997l-4.59-3.274a5.482 5.482 0 00-3.202-1.025H15.693a2.183 2.183 0 01-2.18-2.18v-1.05a1.172 1.172 0 00-2.344 0v1.05a4.529 4.529 0 004.524 4.523h14.17c.665 0 1.301.204 1.841.59l6.444 4.596c.77.549 1.852 0 1.852-.954V16.084zM8.427 11.198h13.54a1.172 1.172 0 100-2.344H8.426a1.172 1.172 0 000 2.344zM8.427 16.667h13.54a1.172 1.172 0 000-2.344H8.426a1.172 1.172 0 000 2.344z"/></g><defs><clipPath id="prefix__clip0"><path fill="#fff" d="M0 0h40v40H0z"/></clipPath></defs></svg>