<svg xmlns="http://www.w3.org/2000/svg" width="40" height="40" fill="none"><defs/><path fill="#000" d="M28.17 18.901l-7.071-7.071a1.249 1.249 0 10-1.768 1.768l5.152 5.152H11.25a1.25 1.25 0 000 2.5h13.233l-5.152 5.151a1.249 1.249 0 000 1.768c.489.488 1.28.488 1.768 0l7.07-7.072c.3-.3.393-.71.326-1.098a1.233 1.233 0 00-.325-1.098zM20 0C8.954 0 0 8.954 0 20s8.954 20 20 20 20-8.955 20-20S31.046 0 20 0zm0 37.5c-9.665 0-17.5-7.835-17.5-17.5S10.335 2.5 20 2.5 37.5 10.335 37.5 20 29.665 37.5 20 37.5z"/></svg>