<svg xmlns="http://www.w3.org/2000/svg" width="40" height="40" fill="none"><defs/><g clip-path="url(#prefix__clip0)"><path fill="#000" d="M39.622 37.824L29.295 27.662c2.704-2.939 4.366-6.825 4.366-11.1C33.659 7.413 26.125 0 16.83 0 7.535 0 0 7.414 0 16.561c0 9.148 7.535 16.562 16.83 16.562 4.015 0 7.699-1.39 10.592-3.699L37.79 39.627a1.309 1.309 0 001.83 0 1.26 1.26 0 00.002-1.803zm-22.792-7.25c-7.864 0-14.24-6.273-14.24-14.013 0-7.739 6.376-14.013 14.24-14.013 7.865 0 14.24 6.274 14.24 14.013 0 7.74-6.375 14.014-14.24 14.014z"/></g><defs><clipPath id="prefix__clip0"><path fill="#fff" d="M0 0h40v40H0z"/></clipPath></defs></svg>