<svg xmlns="http://www.w3.org/2000/svg" width="40" height="40" fill="none"><defs/><path fill="#000" d="M27.146 27.146a1.258 1.258 0 01-1.781 0l-5.371-5.371-5.296 5.296a1.249 1.249 0 01-1.768 0 1.248 1.248 0 010-1.767l5.296-5.296-5.332-5.333a1.258 1.258 0 111.781-1.781l5.333 5.332 5.296-5.296a1.249 1.249 0 011.767 0c.49.489.49 1.28 0 1.768l-5.296 5.296 5.371 5.371c.493.491.493 1.29 0 1.781zM20 40C8.954 40 0 31.046 0 20S8.954 0 20 0c11.045 0 20 8.955 20 20s-8.954 20-20 20zm0-37.5C10.335 2.5 2.5 10.335 2.5 20S10.335 37.5 20 37.5 37.5 29.665 37.5 20 29.665 2.5 20 2.5z"/></svg>