<svg xmlns="http://www.w3.org/2000/svg" width="40" height="40" fill="none"><defs/><path fill="#D15241" d="M32.381 8.691c-5.48 1.563-6.485 5.994-6.13 8.809C22.34 12.904 22.5 7.616 22.5 0c-12.541 4.729-9.625 18.36-10 22.5-3.154-2.582-3.75-8.75-3.75-8.75-3.33 1.714-5 6.289-5 10C3.75 32.725 11.025 40 20 40s16.25-7.275 16.25-16.25c0-5.334-3.916-7.794-3.869-15.059zM20.625 37.5c-7.939 0-14.375-6.699-14.375-14.219 0-1.747.039-3.163 1.25-4.531-.132.791 1.746 7.569 7.881 7.214-.266-5.15-1.658-17.763 4.81-22.123-.572 6.855 1.107 16.064 8.595 17.409-.428-2.749-.379-7.322 1.548-8.168.206 4.212 3.321 6.81 3.321 10.858 0 7.329-7.091 13.56-13.03 13.56z"/></svg>