<svg width="24" height="24" viewBox="0 0 24 24" fill="none" xmlns="http://www.w3.org/2000/svg">
<path d="M20.4431 7.84911C18.0502 5.81792 15.1247 4.21143 12 4.21143C8.87438 4.21143 5.94872 5.81881 3.55687 7.84911C1.47262 9.61831 0.188484 11.3681 0.134859 11.4417C-0.0449531 11.6884 -0.0449531 12.023 0.134859 12.2698C0.188531 12.3434 1.47262 14.0932 3.55687 15.8623C5.94984 17.8936 8.87536 19.5 12 19.5C15.1255 19.5 18.0512 17.8927 20.4431 15.8623C22.5274 14.0931 23.8115 12.3434 23.8651 12.2698C24.045 12.023 24.045 11.6884 23.8651 11.4417C23.8115 11.3681 22.5274 9.61831 20.4431 7.84911ZM19.509 14.8107C17.739 16.3084 14.9996 18.0938 12 18.0938C9.00042 18.0938 6.26091 16.3084 4.49095 14.8107C3.11114 13.643 2.08683 12.4611 1.59544 11.8557C2.08692 11.2502 3.11123 10.0683 4.49095 8.90075C6.26091 7.403 9.00042 5.61763 12 5.61763C14.9996 5.61763 17.7391 7.403 19.509 8.90075C20.8888 10.0683 21.913 11.2501 22.4046 11.8557C21.9131 12.4613 20.8888 13.6431 19.509 14.8107Z" fill="#36A968"/>
<path d="M12.0001 7.74731C9.73463 7.74731 7.8916 9.5903 7.8916 11.8557C7.8916 14.1211 9.73463 15.964 12.0001 15.964C14.2655 15.964 16.1085 14.1211 16.1085 11.8557C16.1085 9.5903 14.2655 7.74731 12.0001 7.74731ZM12.0001 14.5579C10.51 14.5579 9.29785 13.3457 9.29785 11.8557C9.29785 10.3658 10.51 9.15356 12.0001 9.15356C13.4901 9.15356 14.7023 10.3658 14.7023 11.8557C14.7023 13.3457 13.4901 14.5579 12.0001 14.5579Z" fill="#36A968"/>
</svg>
