<svg xmlns="http://www.w3.org/2000/svg" width="40" height="40" fill="none"><defs/><g clip-path="url(#prefix__clip0)"><path fill="#000" d="M38.421.075L.767 13.946a1.172 1.172 0 00-.423 1.928l7.547 7.548-1.452 8.792c-.13.791.555 1.478 1.347 1.347l8.792-1.452 7.548 7.548c.6.6 1.63.385 1.928-.424L39.926 1.58C40.27.643 39.358-.27 38.42.075zM9.018 30.983l.912-5.522.084.084a1.174 1.174 0 001.536.105l11.525-8.724c-9.373 12.38-8.758 11.562-8.815 11.665a1.173 1.173 0 00.196 1.396l.084.084-5.522.912zm15.47 5.722l-7.653-7.654 13.23-17.476c.814-1.098-.588-2.436-1.649-1.632L10.95 23.166l-7.653-7.654 33.553-12.36-12.361 33.553z"/></g><defs><clipPath id="prefix__clip0"><path fill="#fff" d="M0 0h40v40H0z"/></clipPath></defs></svg>