<svg xmlns="http://www.w3.org/2000/svg" width="40" height="40" fill="none"><defs/><path fill="#000" d="M20 0C8.946 0 0 8.945 0 20c0 11.054 8.945 20 20 20 11.054 0 20-8.945 20-20C40 8.946 31.055 0 20 0zm14.79 21.172h2.826a17.584 17.584 0 01-4.336 10.45l-1.213-1.212a1.172 1.172 0 10-1.657 1.657l1.212 1.213a17.583 17.583 0 01-10.45 4.336v-2.045a1.172 1.172 0 00-2.344 0v2.045a17.584 17.584 0 01-10.45-4.336l1.212-1.213a1.172 1.172 0 10-1.657-1.657L6.72 31.622a17.582 17.582 0 01-4.336-10.45H4.43a1.172 1.172 0 000-2.344H2.384A17.583 17.583 0 016.72 8.378L7.933 9.59A1.172 1.172 0 109.59 7.933L8.377 6.72a17.583 17.583 0 0110.451-4.336V4.43a1.172 1.172 0 002.344 0V2.384a17.583 17.583 0 0110.45 4.336L30.41 7.933a1.172 1.172 0 101.657 1.657l1.213-1.213a17.583 17.583 0 014.336 10.451H34.79a1.172 1.172 0 000 2.344z"/><path fill="#000" d="M27.395 18.828h-6.223V9.117a1.172 1.172 0 00-2.344 0V20c0 .647.525 1.172 1.172 1.172h7.395a1.172 1.172 0 000-2.344z"/></svg>