<svg xmlns="http://www.w3.org/2000/svg" width="40" height="40" fill="none"><defs/><g clip-path="url(#prefix__clip0)"><path fill="#000" d="M8.918 36.624a2.611 2.611 0 01-3.694 0l-1.847-1.847a2.611 2.611 0 010-3.694l12.417-12.417c-1.74-.46-3.665-.03-5.03 1.335L1.53 29.235a5.223 5.223 0 000 7.388l1.847 1.846a5.223 5.223 0 007.388 0l9.234-9.234c1.364-1.364 1.794-3.29 1.335-5.03L8.918 36.625zM38.469 3.379l-1.846-1.847a5.223 5.223 0 00-7.388 0l-9.234 9.234c-1.364 1.364-1.794 3.29-1.335 5.028L31.084 3.377a2.611 2.611 0 013.694 0l1.847 1.847a2.612 2.612 0 010 3.694L24.207 21.335c1.74.46 3.665.03 5.028-1.334l9.234-9.235a5.223 5.223 0 000-7.387zM24.155 15.866a1.306 1.306 0 00-1.847 0l-6.463 6.465a1.306 1.306 0 101.846 1.846l6.465-6.464c.51-.51.51-1.338 0-1.847z"/></g><defs><clipPath id="prefix__clip0"><path fill="#fff" d="M0 0h40v40H0z"/></clipPath></defs></svg>