<svg xmlns="http://www.w3.org/2000/svg" width="40" height="40" fill="none"><defs/><g clip-path="url(#prefix__clip0)"><path fill="#D15241" d="M.009 20c-.117 4.983.9 9.994 3.227 11.874 6.52 5.268 27.008 5.268 33.528 0 2.326-1.88 3.344-6.89 3.227-11.874H.009z"/><path fill="#E56353" d="M36.764 8.62c-5.927-5.927-27.601-5.927-33.528 0C1.24 10.616.119 15.296.009 20H39.99c-.11-4.704-1.23-9.384-3.227-11.38z"/><path fill="#fff" d="M26.122 18.892l-10.616-7.8c-.908-.667-2.19-.018-2.19 1.109V20h13.367c0-.417-.187-.834-.56-1.108z"/><path fill="#EBF0F3" d="M15.506 28.908l10.616-7.8c.374-.274.561-.691.561-1.108H13.316v7.8c0 1.126 1.282 1.775 2.19 1.108z"/></g><defs><clipPath id="prefix__clip0"><path fill="#fff" d="M0 0h40v40H0z"/></clipPath></defs></svg>